<svg width="576" height="95" viewBox="0 0 576 95" fill="none" xmlns="http://www.w3.org/2000/svg">
<path d="M0 47.5C0 32.7452 0 25.3678 2.41467 19.5484C5.63424 11.7891 11.8096 5.62446 19.5824 2.41048C25.4119 0 32.8021 0 47.5826 0H528.417C543.198 0 550.588 0 556.418 2.41048C564.19 5.62446 570.366 11.7891 573.585 19.5484C576 25.3678 576 32.7452 576 47.5C576 62.2548 576 69.6322 573.585 75.4516C570.366 83.2109 564.19 89.3755 556.418 92.5895C550.588 95 543.198 95 528.417 95H47.5826C32.8021 95 25.4119 95 19.5824 92.5895C11.8096 89.3755 5.63424 83.2109 2.41467 75.4516C0 69.6322 0 62.2548 0 47.5Z" fill="#4A4A4A"/>
</svg>
