<svg width="144" height="70" viewBox="0 0 144 70" fill="none" xmlns="http://www.w3.org/2000/svg">
<path d="M45.055 39.5945L52.2403 2.83832H63.2016L51.3605 54.4957H40.2892L31.6008 19.9392L22.9124 54.4957H11.8411L0 2.83832H10.9613L18.1833 39.5236L26.9817 2.83832H36.2933L45.055 39.5945Z" fill="#58585B"/>
<path d="M78.8187 20.294C81.6293 17.0299 85.1609 15.3979 89.4134 15.3979C98.0163 15.3979 102.379 20.2348 102.501 29.9088V54.4957H91.9063V30.1926C91.9063 27.9929 91.4175 26.3727 90.4399 25.332C89.4623 24.2676 87.8371 23.7354 85.5642 23.7354C82.4603 23.7354 80.2118 24.8944 78.8187 27.2124V54.4957H68.224V0H78.8187V20.294Z" fill="#58585B"/>
<path d="M125.303 39.9848L132.635 16.1075H144L128.053 60.4562L127.173 62.4785C124.802 67.4928 120.892 70 115.442 70C113.902 70 112.338 69.7753 110.749 69.3259V61.556L112.363 61.5915C114.367 61.5915 115.857 61.2958 116.835 60.7045C117.837 60.1132 118.619 59.1316 119.181 57.7598L120.428 54.6021L106.534 16.1075H117.935L125.303 39.9848Z" fill="#58585B"/>
</svg>
