<svg width="417" height="43" viewBox="0 0 417 43" fill="none" xmlns="http://www.w3.org/2000/svg">
<path d="M32.0084 42.4473H23.905V25.2031H8.10338V42.4473H0V2.2108H8.10338V18.5154H23.905V2.2108H32.0084V42.4473Z" fill="white"/>
<path d="M37.3836 27.2204C37.3836 24.2543 37.9418 21.6105 39.0583 19.2892C40.1748 16.9679 41.7774 15.1716 43.8663 13.9004C45.9732 12.6292 48.4132 11.9936 51.1864 11.9936C55.13 11.9936 58.3443 13.2279 60.8294 15.6967C63.3324 18.1654 64.728 21.5184 65.0161 25.7558L65.0702 27.8008C65.0702 32.3882 63.8186 36.0728 61.3156 38.8548C58.8125 41.6182 55.4541 43 51.2404 43C47.0266 43 43.6592 41.6182 41.1382 38.8548C38.6351 36.0913 37.3836 32.3329 37.3836 27.5797V27.2204ZM45.1899 27.8008C45.1899 30.638 45.7121 32.8119 46.7565 34.3226C47.8009 35.8149 49.2956 36.5611 51.2404 36.5611C53.1312 36.5611 54.6078 35.8241 55.6702 34.3503C56.7327 32.858 57.2639 30.4814 57.2639 27.2204C57.2639 24.4385 56.7327 22.283 55.6702 20.7539C54.6078 19.2247 53.1132 18.4602 51.1864 18.4602C49.2776 18.4602 47.8009 19.2247 46.7565 20.7539C45.7121 22.2646 45.1899 24.6135 45.1899 27.8008Z" fill="white"/>
<path d="M95.2958 31.5868L99.1314 12.5463H106.668L99.2124 42.4473H92.6757L87.1384 23.6279L81.6011 42.4473H75.0913L67.6362 12.5463H75.1724L78.981 31.5591L84.3292 12.5463H89.9745L95.2958 31.5868Z" fill="white"/>
<path d="M133.679 5.19537V12.5463H138.676V18.4049H133.679V33.3278C133.679 34.4332 133.886 35.2254 134.3 35.7044C134.714 36.1834 135.507 36.4229 136.677 36.4229C137.541 36.4229 138.307 36.3584 138.973 36.2294V42.2815C137.442 42.7605 135.867 43 134.246 43C128.772 43 125.981 40.172 125.873 34.5161V18.4049H121.605V12.5463H125.873V5.19537H133.679Z" fill="white"/>
<path d="M140.999 27.2204C140.999 24.2543 141.557 21.6105 142.674 19.2892C143.79 16.9679 145.393 15.1716 147.482 13.9004C149.588 12.6292 152.028 11.9936 154.802 11.9936C158.745 11.9936 161.96 13.2279 164.445 15.6967C166.948 18.1654 168.343 21.5184 168.631 25.7558L168.685 27.8008C168.685 32.3882 167.434 36.0728 164.931 38.8548C162.428 41.6182 159.069 43 154.856 43C150.642 43 147.274 41.6182 144.753 38.8548C142.25 36.0913 140.999 32.3329 140.999 27.5797V27.2204ZM148.805 27.8008C148.805 30.638 149.327 32.8119 150.372 34.3226C151.416 35.8149 152.911 36.5611 154.856 36.5611C156.746 36.5611 158.223 35.8241 159.285 34.3503C160.348 32.858 160.879 30.4814 160.879 27.2204C160.879 24.4385 160.348 22.283 159.285 20.7539C158.223 19.2247 156.728 18.4602 154.802 18.4602C152.893 18.4602 151.416 19.2247 150.372 20.7539C149.327 22.2646 148.805 24.6135 148.805 27.8008Z" fill="white"/>
<path d="M195.886 28.2706V42.4473H187.782V2.2108H203.125C206.078 2.2108 208.671 2.7635 210.904 3.86889C213.155 4.97429 214.884 6.54949 216.09 8.59447C217.297 10.621 217.9 12.9332 217.9 15.5308C217.9 19.4734 216.576 22.587 213.929 24.8715C211.3 27.1375 207.654 28.2706 202.99 28.2706H195.886ZM195.886 21.5553H203.125C205.268 21.5553 206.897 21.0394 208.014 20.0077C209.148 18.976 209.716 17.5021 209.716 15.5861C209.716 13.6148 209.148 12.0212 208.014 10.8053C206.879 9.58933 205.313 8.96294 203.314 8.92609H195.886V21.5553Z" fill="white"/>
<path d="M240.481 39.4075C238.555 41.8025 235.889 43 232.486 43C229.353 43 226.958 42.0788 225.301 40.2365C223.662 38.3942 222.825 35.6952 222.789 32.1395V12.5463H230.595V31.8631C230.595 34.9766 231.982 36.5334 234.755 36.5334C237.402 36.5334 239.221 35.5938 240.211 33.7147V12.5463H248.045V42.4473H240.697L240.481 39.4075Z" fill="white"/>
<path d="M270.356 20.0353C269.293 19.888 268.357 19.8143 267.547 19.8143C264.593 19.8143 262.658 20.8368 261.739 22.8817V42.4473H253.933V12.5463H261.307L261.523 16.1112C263.09 13.3661 265.26 11.9936 268.033 11.9936C268.897 11.9936 269.708 12.1133 270.464 12.3528L270.356 20.0353Z" fill="white"/>
<path d="M285.752 36.5611C287.193 36.5611 288.363 36.1557 289.264 35.3451C290.164 34.5345 290.632 33.4567 290.668 32.1118H297.988C297.97 34.1384 297.43 35.9991 296.368 37.6941C295.305 39.3706 293.847 40.6787 291.992 41.6182C290.155 42.5394 288.12 43 285.887 43C281.71 43 278.414 41.6459 276.001 38.9377C273.588 36.211 272.382 32.4527 272.382 27.6626V27.1375C272.382 22.5317 273.579 18.8563 275.974 16.1112C278.369 13.3661 281.656 11.9936 285.833 11.9936C289.489 11.9936 292.415 13.0621 294.612 15.1992C296.827 17.3179 297.952 20.1459 297.988 23.6832H290.668C290.632 22.1356 290.164 20.8828 289.264 19.9248C288.363 18.9484 287.175 18.4602 285.698 18.4602C283.879 18.4602 282.502 19.1418 281.565 20.5051C280.647 21.85 280.188 24.0424 280.188 27.0823V27.9113C280.188 30.988 280.647 33.1988 281.565 34.5437C282.484 35.8886 283.879 36.5611 285.752 36.5611Z" fill="white"/>
<path d="M310.062 15.8072C312.133 13.2648 314.735 11.9936 317.869 11.9936C324.207 11.9936 327.422 15.7611 327.512 23.2963V42.4473H319.705V23.5174C319.705 21.804 319.345 20.542 318.625 19.7314C317.905 18.9023 316.707 18.4878 315.032 18.4878C312.746 18.4878 311.089 19.3905 310.062 21.196V42.4473H302.256V0H310.062V15.8072Z" fill="white"/>
<path d="M350.336 42.4473C349.976 41.7288 349.715 40.8353 349.553 39.7667C347.662 41.9222 345.204 43 342.179 43C339.316 43 336.939 42.1525 335.048 40.4576C333.175 38.7626 332.239 36.6255 332.239 34.0463C332.239 30.8775 333.382 28.4456 335.669 26.7506C337.974 25.0557 341.296 24.199 345.636 24.1806H349.229V22.4672C349.229 21.0855 348.878 19.9801 348.175 19.151C347.491 18.322 346.402 17.9075 344.907 17.9075C343.592 17.9075 342.557 18.2299 341.801 18.8747C341.062 19.5195 340.693 20.4038 340.693 21.5276H332.887C332.887 19.7958 333.409 18.193 334.454 16.7192C335.498 15.2453 336.975 14.0938 338.883 13.2648C340.792 12.4173 342.935 11.9936 345.312 11.9936C348.914 11.9936 351.768 12.924 353.875 14.7847C356 16.627 357.062 19.2247 357.062 22.5778V35.5386C357.08 38.3757 357.467 40.5221 358.224 41.9775V42.4473H350.336ZM343.881 36.8927C345.033 36.8927 346.095 36.6347 347.068 36.1189C348.04 35.5846 348.761 34.8753 349.229 33.991V28.8509H346.312C342.404 28.8509 340.324 30.2326 340.072 32.9961L340.045 33.4659C340.045 34.4608 340.387 35.2806 341.071 35.9254C341.756 36.5703 342.692 36.8927 343.881 36.8927Z" fill="white"/>
<path d="M378.887 34.1844C378.887 33.208 378.41 32.4434 377.456 31.8907C376.519 31.3196 375.007 30.813 372.918 30.3708C365.967 28.8785 362.491 25.8571 362.491 21.3066C362.491 18.6536 363.563 16.4428 365.706 14.6742C367.867 12.8871 370.685 11.9936 374.16 11.9936C377.87 11.9936 380.832 12.8871 383.047 14.6742C385.28 16.4612 386.396 18.7826 386.396 21.6382H378.59C378.59 20.4959 378.23 19.5563 377.51 18.8194C376.789 18.0641 375.664 17.6864 374.133 17.6864C372.819 17.6864 371.801 17.9904 371.081 18.5983C370.361 19.2063 370 19.9801 370 20.9197C370 21.804 370.406 22.5225 371.216 23.0752C372.044 23.6095 373.431 24.0793 375.376 24.4846C377.32 24.8715 378.959 25.3136 380.292 25.8111C384.415 27.3586 386.477 30.0392 386.477 33.8528C386.477 36.5795 385.334 38.7903 383.047 40.4852C380.76 42.1617 377.807 43 374.187 43C371.738 43 369.559 42.5578 367.65 41.6735C365.76 40.7708 364.274 39.5456 363.194 37.9981C362.113 36.4321 361.573 34.7464 361.573 32.9409H368.974C369.046 34.3595 369.559 35.4464 370.514 36.2018C371.468 36.9572 372.747 37.3348 374.349 37.3348C375.844 37.3348 376.969 37.0493 377.726 36.4781C378.5 35.8886 378.887 35.124 378.887 34.1844Z" fill="white"/>
<path d="M404.98 43C400.694 43 397.201 41.6551 394.5 38.9653C391.817 36.2755 390.475 32.6922 390.475 28.2153V27.4415C390.475 24.4385 391.042 21.7579 392.177 19.3997C393.311 17.0231 394.914 15.1992 396.985 13.928C399.074 12.6384 401.451 11.9936 404.116 11.9936C408.113 11.9936 411.256 13.2832 413.543 15.8625C415.848 18.4417 417 22.0988 417 26.8335V30.0945H398.389C398.641 32.0473 399.398 33.6133 400.658 34.7924C401.937 35.9715 403.548 36.5611 405.493 36.5611C408.5 36.5611 410.85 35.4464 412.543 33.2172L416.379 37.6112C415.208 39.3061 413.624 40.6326 411.625 41.5906C409.626 42.5302 407.411 43 404.98 43ZM404.089 18.4602C402.54 18.4602 401.279 18.9944 400.307 20.063C399.353 21.1315 398.74 22.6607 398.47 24.6504H409.329V24.0148C409.293 22.2461 408.825 20.8828 407.924 19.9248C407.024 18.9484 405.745 18.4602 404.089 18.4602Z" fill="white"/>
</svg>
